<?xml version="1.0" standalone="no"?>
<!DOCTYPE svg PUBLIC "-//W3C//DTD SVG 20010904//EN"
 "http://www.w3.org/TR/2001/REC-SVG-20010904/DTD/svg10.dtd">
<svg version="1.0" xmlns="http://www.w3.org/2000/svg"
 width="105.000000pt" height="105.000000pt" viewBox="0 0 105.000000 105.000000"
 preserveAspectRatio="xMidYMid meet">
<metadata>
Created by potrace 1.11, written by Peter Selinger 2001-2013
</metadata>
<g transform="translate(0.000000,105.000000) scale(0.100000,-0.100000)"
fill="#000000" stroke="none">
<path d="M0 525 l0 -525 246 0 245 0 -16 28 c-15 26 -15 30 10 85 15 31 33 57
41 57 7 0 27 -27 44 -60 24 -47 28 -65 20 -80 -5 -10 -10 -21 -10 -24 0 -3
106 -6 235 -6 l235 0 0 525 0 525 -525 0 -525 0 0 -525z m790 475 c0 -5 -4
-10 -10 -10 -5 0 -10 5 -10 10 0 6 5 10 10 10 6 0 10 -4 10 -10z m-140 -50 c0
-5 -5 -10 -11 -10 -5 0 -7 5 -4 10 3 6 8 10 11 10 2 0 4 -4 4 -10z m-154 -15
c23 10 75 6 90 -6 7 -5 29 -10 50 -11 22 0 47 -7 56 -16 10 -8 24 -12 32 -9 8
3 16 -2 19 -12 2 -10 18 -24 34 -31 17 -8 39 -26 49 -42 11 -15 22 -28 27 -28
4 0 7 -9 7 -21 0 -11 14 -34 30 -51 17 -17 30 -38 29 -47 -1 -9 0 -18 1 -21
12 -31 18 -150 8 -156 -3 -2 -4 -13 -1 -23 3 -10 0 -22 -6 -25 -8 -5 -8 -13 0
-28 9 -16 8 -23 -3 -29 -20 -11 -51 -95 -45 -120 4 -14 1 -19 -11 -17 -12 2
-17 -4 -17 -22 0 -21 -5 -25 -29 -25 -16 -1 -31 -6 -34 -13 -2 -7 -12 -12 -22
-12 -10 0 -26 -7 -34 -16 -9 -9 -21 -12 -28 -7 -19 11 -42 13 -48 3 -9 -14
-60 -24 -60 -11 0 6 5 11 10 11 6 0 10 8 10 17 0 13 -3 14 -12 5 -15 -15 -48
-16 -48 -2 0 13 -37 13 -45 -1 -5 -6 -12 -3 -21 10 -13 18 -18 19 -37 8 -12
-6 -24 -15 -27 -18 -8 -10 -60 -8 -66 3 -3 5 -14 2 -24 -7 -16 -15 -18 -14
-24 10 -4 14 -14 25 -23 25 -8 0 -26 10 -38 23 -12 12 -38 35 -58 51 -24 19
-37 38 -37 53 0 28 -29 123 -41 137 -5 5 -4 15 2 22 6 8 7 20 2 31 -18 36 -5
128 26 188 17 32 28 61 26 65 -3 5 2 10 10 14 8 3 15 15 15 26 0 11 5 20 11
20 6 0 28 18 49 40 31 32 43 39 69 35 21 -2 34 2 40 13 8 14 13 15 29 5 17
-10 23 -9 37 7 13 15 21 17 35 8 10 -7 25 -8 36 -3z m-351 -95 c-3 -5 -10 -10
-16 -10 -5 0 -9 5 -9 10 0 6 7 10 16 10 8 0 12 -4 9 -10z m795 -90 c0 -5 -7
-10 -15 -10 -8 0 -15 5 -15 10 0 6 7 10 15 10 8 0 15 -4 15 -10z m-480 -620
c0 -5 -4 -10 -10 -10 -5 0 -10 5 -10 10 0 6 5 10 10 10 6 0 10 -4 10 -10z"/>
<path d="M515 210 c-3 -5 -1 -10 4 -10 6 0 11 5 11 10 0 6 -2 10 -4 10 -3 0
-8 -4 -11 -10z"/>
<path d="M497 101 c-23 -39 -22 -41 14 -41 28 0 31 3 25 23 -3 12 -6 28 -6 35
0 21 -15 13 -33 -17z"/>
<path d="M560 75 c0 -8 4 -15 10 -15 5 0 7 7 4 15 -4 8 -8 15 -10 15 -2 0 -4
-7 -4 -15z"/>
<path d="M497 34 c-11 -11 5 -34 24 -34 23 0 25 25 3 34 -19 7 -19 7 -27 0z"/>
</g>
</svg>
